<?xml version="1.0" encoding="utf-8"?>
<!-- Designed by Vexels.com - 2020 All Rights Reserved - https://vexels.com/terms-and-conditions/  -->
<svg version="1.1" id="Capa_1" xmlns="http://www.w3.org/2000/svg" xmlns:xlink="http://www.w3.org/1999/xlink" x="0px" y="0px"
	 viewBox="0 0 1200 1200" enable-background="new 0 0 1200 1200" xml:space="preserve">
<g>
	<path fill="#B1D9EA" d="M593.15,870.13c-123.607,0-230.565-44.97-280.488-109.877v25.582c0,89.492,125.823,162.314,280.488,162.314
		c123.922,0,229.329-46.753,266.344-111.369l-14.89-46.257C788.125,838.722,696.459,870.13,593.15,870.13z"/>
	<path fill="#44B3DA" d="M825.486,655.111l48.179,15.509V561.418l-280.5,125.157L312.662,561.417v116.425
		c0,89.492,125.823,162.287,280.488,162.287c102.781,0,192.82-32.154,241.674-79.985l-27.851-86.519
		c-1.691-5.254-0.301-11.01,3.602-14.912C814.477,654.812,820.233,653.42,825.486,655.111z"/>
	<polygon fill="#2695CF" points="1058.159,444.219 593.165,236.741 128.17,444.219 593.165,651.696 	"/>
	<path fill="#FFFFFF" d="M112.724,661.468c0,15.727,12.793,28.52,28.52,28.52s28.547-12.792,28.547-28.52
		c0-15.728-12.82-28.52-28.547-28.52S112.724,645.74,112.724,661.468z"/>
	<path fill="#FFFFFF" d="M926.599,949.214l43.111-67.303c2.403-3.751,6.376-6.211,10.805-6.691
		c4.422-0.479,8.837,1.074,11.986,4.224l46.656,46.655l38.808-38.808l-46.655-46.655c-3.151-3.15-4.703-7.557-4.224-11.987
		c0.48-4.429,2.94-8.402,6.691-10.805l67.297-43.105l-257.304-82.829L926.599,949.214z"/>
	<path fill="#2964AA" d="M1149.877,768.401c-0.733-5.648-4.66-10.365-10.082-12.11l-236.129-76.013V548.031l232.663-103.813
		L593.165,201.862L50,444.219l77.456,34.56v123.943c-26.658,6.253-46.564,30.204-46.564,58.746
		c0,28.541,19.906,52.492,46.564,58.746v94.277h27.577v-94.277c26.665-6.253,46.591-30.204,46.591-58.746
		c0-28.543-19.927-52.494-46.591-58.747V491.084L282.66,548.03v237.806c0,106.055,139.288,192.315,310.49,192.315
		c121.311,0,226.572-43.303,277.645-106.262l37.356,116.045c1.745,5.421,6.462,9.348,12.11,10.081
		c0.635,0.082,1.269,0.123,1.898,0.123c4.969,0,9.659-2.52,12.386-6.777l50.079-78.183l44.13,44.129
		c5.746,5.746,15.062,5.746,20.806,0l59.614-59.614c5.746-5.745,5.746-15.061,0-20.806l-44.128-44.129l78.176-50.074
		C1148.018,779.613,1150.61,774.049,1149.877,768.401z M169.792,661.468c0,15.727-12.82,28.52-28.547,28.52
		s-28.52-12.792-28.52-28.52c0-15.728,12.793-28.52,28.52-28.52S169.792,645.74,169.792,661.468z M128.17,444.219l464.995-207.478
		l464.994,207.478L593.165,651.696L128.17,444.219z M806.973,673.625l27.851,86.519c-48.854,47.831-138.893,79.985-241.674,79.985
		c-154.666,0-280.488-72.795-280.488-162.287V561.417l280.504,125.158l280.5-125.157v109.203l-48.179-15.509
		c-5.253-1.691-11.009-0.3-14.911,3.602C806.672,662.615,805.282,668.371,806.973,673.625z M593.15,948.15
		c-154.666,0-280.488-72.822-280.488-162.314v-25.582C362.585,825.16,469.543,870.13,593.15,870.13
		c103.309,0,194.975-31.409,251.454-79.606l14.89,46.257C822.479,901.397,717.072,948.15,593.15,948.15z M1033.778,817.844
		c-3.751,2.404-6.211,6.377-6.691,10.805c-0.479,4.429,1.073,8.837,4.224,11.987l46.655,46.655l-38.808,38.808l-46.656-46.655
		c-3.15-3.151-7.565-4.703-11.986-4.224c-4.429,0.48-8.402,2.94-10.805,6.691l-43.111,67.303l-82.828-257.305l257.304,82.829
		L1033.778,817.844z"/>
</g>
</svg>
