<svg xmlns="http://www.w3.org/2000/svg" viewBox="0 0 200 300" width="200" height="300">
  <!-- Rocket (green) -->
  <path fill="#1cd767" d="
    M100,10
    C85,10 70,30 70,60
    L50,80
    L70,80
    L100,110
    L130,80
    L150,80
    L130,60
    C130,30 115,10 100,10
    Z"/>
  <!-- Rocket window -->
  <circle fill="#ffffff" cx="100" cy="60" r="8"/>

  <!-- Open book (left page green) -->
  <path fill="#1cd767" d="
    M40,140
    L100,110
    L100,200
    L40,200
    Z"/>
  <!-- Open book (right page gold) -->
  <path fill="#fed81d" d="
    M100,110
    L160,140
    L160,200
    L100,200
    Z"/>
  <!-- Left page detail -->
  <path fill="#ffffff" d="
    M60,150
    C70,155 85,170 100,170
    L100,160
    C90,155 75,145 60,140
    Z"/>

  <!-- Colored dots -->
  <circle fill="#ff5bb9" cx="50" cy="240" r="10"/>
  <circle fill="#fed81d" cx="100" cy="250" r="10"/>
  <circle fill="#1cd767" cx="150" cy="240" r="10"/>
</svg>
